<?xml version="1.0" encoding="UTF-8"?>
<svg id="Camada_1" data-name="Camada 1" xmlns="http://www.w3.org/2000/svg" viewBox="0 0 1796.68 308.53">
  <defs>
    <style>
      .cls-1 {
        fill: #010101;
      }
    </style>
  </defs>
  <path class="cls-1" d="M197.73,69.81c-3.15-17.57-13.06-32.43-29.73-43.69-16.67-11.26-37.38-17.12-61.26-17.12-25.67,0-47.29,6.76-64.41,19.82-17.12,13.06-25.67,29.73-25.67,50,0,16.67,8.11,30.63,18.47,39.64,4.95,4.05,12.16,8.11,20.72,11.71,17.57,7.21,29.28,9.91,50.9,14.86,24.77,4.95,39.19,8.56,59,17.57,28.83,11.71,44.59,30.18,46.39,62.16,0,24.32-9.91,44.59-30.18,60.36-20.27,15.76-45.49,23.42-75.67,23.42-27.93,0-51.8-6.76-71.17-20.27-19.37-13.51-31.08-31.08-35.13-52.25l9.01-1.8c3.15,18.92,13.51,34.68,31.53,46.84,18.47,12.16,40.54,18.47,66.21,18.47,27.48,0,50.45-7.21,68.91-21.17,18.47-13.96,27.48-31.98,27.48-53.6,0-17.57-7.66-31.53-18.92-40.54-5.4-4.96-12.61-9.01-21.62-13.06-17.57-7.66-32.88-11.71-56.75-16.67-21.62-4.96-33.78-7.21-53.15-15.77-27.02-11.71-42.79-28.83-44.59-59.9,0-22.97,9.46-41.89,27.93-56.75S77.92,0,106.3,0c26.57,0,48.64,6.31,67.11,19.37,18.47,12.61,29.73,28.83,33.33,48.64l-9.01,1.8Z"/>
  <path class="cls-1" d="M290.06,306.28V2.25h9.01v304.03h-9.01Z"/>
  <path class="cls-1" d="M496.35,306.28L359.88,2.25h9.91l129.72,288.26L628.77,2.25h9.91l-136.47,304.03h-5.86Z"/>
  <path class="cls-1" d="M699.48,306.28V2.25h9.01v304.03h-9.01Z"/>
  <path class="cls-1" d="M803.98,306.28V2.25h132.42c25.67,0,46.84,8.11,63.51,24.77,17.12,16.67,25.67,37.38,25.67,62.16,0,22.07-6.76,40.99-20.72,56.75-13.51,15.76-31.08,25.67-52.7,28.83l83.33,131.52h-10.81l-82.88-130.17h-128.82v130.17h-9.01ZM812.99,167.1h123.41c22.97,0,41.89-7.21,57.2-22.07,15.31-14.86,22.97-33.78,22.97-55.85s-7.66-40.54-22.97-55.4c-15.31-14.86-34.23-22.52-57.2-22.52h-123.41v155.84Z"/>
  <path class="cls-1" d="M1100.8,306.28V2.25h9.01v304.03h-9.01Z"/>
  <path class="cls-1" d="M1205.29,306.28V2.25h6.76l231.96,286.91V2.25h9.01v304.03h-6.76L1214.3,18.92v287.36h-9.01Z"/>
  <path class="cls-1" d="M1513.37,306.28L1652.1,2.25h5.86l138.73,304.03h-9.91l-39.19-85.58h-185.12l-39.19,85.58h-9.91ZM1655.25,18.02l-88.73,193.68h177.01l-88.28-193.68Z"/>
</svg>